<svg xmlns="http://www.w3.org/2000/svg" viewBox="0 0 866.23 932.99"><defs><style>.cls-1{fill:#090909;}.cls-2{fill:#fff;}</style></defs><g id="Layer_2" data-name="Layer 2"><g id="Layer_1-2" data-name="Layer 1"><path class="cls-1" d="M505.34,401.35c-17.58,9.62-34.72,19.45-50.95,29.21l-8.86,5.33-5-9c-11.13-20-22.72-40.65-34.43-61.28s-23.76-41.1-36-61.09l-5.67-9.29,9.73-4.86c17.15-8.58,34.47-18.08,51.47-28.24,11.79-7,24.09-14,36.74-20.66-12.3-7.42-24.45-14.82-36-21.87-18.88-11.59-35.63-21.75-51.22-31.07l-8.54-5.1,5.05-8.57c11-18.56,21.94-38,32.66-57.7q9.17-16.8,18.52-33.24-51.59-8.8-114.68-8.82H0V933H348.24Q505,931.81,584.82,868.46T664.66,679q0-69.54-35.95-117.85t-103.11-66c5.61-2.11,11-4.41,16.25-6.85V380.68C529.36,388,517.31,394.8,505.34,401.35Z"/><path class="cls-2" d="M551.84,363.16c-16.82,10-33.92,19.91-51.3,29.41s-34.47,19.29-51.3,29.42q-16.83-30.27-34.48-61.36t-36.12-61.36c17.93-9,35.3-18.54,52.13-28.59s34.2-19.57,52.12-28.6C466.07,232,449,221.63,431.59,211S397.11,190,380.29,179.9q16.81-28.52,32.83-58t32.83-58Q472.85,79.07,498.9,95t52.94,31.06V0H693q0,32-.82,63.07t-.82,63Q718.27,111,745.16,95.83T798.92,65.6q16.83,28.62,33.66,58t33.65,57.94c-17.92,10.12-36,20.52-53.76,31.12q-27.09,16-55.55,31.12,26.88,15.09,53,30.24t52.94,30.3c-11.22,20.11-22.71,40.63-34.47,61.36s-23.81,41.18-36.12,61.36q-26.88-15.18-52.13-31.12c-16.82-10.68-34.2-21-52.12-31.13q0,28.63-.82,58t-.82,58H551.84Z"/></g></g></svg>