<svg xmlns="http://www.w3.org/2000/svg" viewBox="0 0 225.31 228.45"><defs><style>.cls-1{fill:#fff;}</style></defs><g id="Layer_2" data-name="Layer 2"><g id="Layer_1-2" data-name="Layer 1"><path class="cls-1" d="M55.13,81.16q-7.07-11.82-13.78-24t-13.78-24Q41.75,25.24,56.32,17T85.07,0c4.2,8.4,8.69,16.54,13.4,24.43s9.17,16,13.4,24.42q7.06-11.82,14.55-24c5-8.17,9.88-16.15,14.59-24,8.91,5.26,18,10.35,27.18,15.36s18.24,10.09,27.18,15.35q-7.11,12.6-14.58,24.84T166.23,81.16h59.08v66.16q-15,0-29.55-.38c-9.72-.29-19.56-.39-29.53-.39,4.72,8.37,9.43,16.8,14.17,25.2s9.46,16.79,14.17,25.19q-13.41,7.89-27.18,15.77c-9.17,5.26-18.24,10.48-27.15,15.74q-7.12-12.6-14.59-25.19c-5-8.4-9.84-17.09-14.58-26-4.71,8.4-9.46,16.67-14.17,24.81s-9.46,16.41-14.2,24.81c-9.42-5.26-19-10.61-28.75-16.15s-19.3-11.16-28.76-16.93c4.75-8.4,9.59-16.54,14.59-24.42s9.84-16,14.58-24.43q-13.41,0-27.18-.38T0,144.18v-63Z"/></g></g></svg>