<svg xmlns="http://www.w3.org/2000/svg" viewBox="0 0 487.59 480.82"><defs><style>.cls-1{fill:#494c3b;}</style></defs><g id="Layer_2" data-name="Layer 2"><g id="Layer_1-2" data-name="Layer 1"><path class="cls-1" d="M173.2,363.16c-16.83,10-33.93,19.91-51.3,29.41S87.42,411.86,70.59,422q-16.81-30.27-34.47-61.36T0,299.27c17.92-9,35.3-18.54,52.12-28.59s34.21-19.57,52.13-28.6C87.42,232,70.32,221.63,53,211S18.47,190,1.64,179.9q16.83-28.52,32.84-58t32.83-58q26.88,15.18,53,31.12t52.94,31.06V0H314.39q0,32-.82,63.07t-.82,63Q339.63,111,366.51,95.83T420.28,65.6q16.83,28.62,33.65,58t33.66,57.94c-17.92,10.12-36,20.52-53.77,31.12q-27.09,16-55.54,31.12,26.88,15.09,52.94,30.24t52.95,30.3C473,324.44,461.46,345,449.69,365.69s-23.8,41.18-36.12,61.36q-26.88-15.18-52.12-31.12c-16.83-10.68-34.2-21-52.12-31.13q0,28.63-.83,58t-.82,58H173.2Z"/></g></g></svg>